<?xml version="1.0" encoding="UTF-8"?>
<!DOCTYPE svg PUBLIC "-//W3C//DTD SVG 1.0//EN" "http://www.w3.org/TR/2001/REC-SVG-20010904/DTD/svg10.dtd">
<!-- Creator: CorelDRAW -->
<svg xmlns="http://www.w3.org/2000/svg" xml:space="preserve" width="94.1916mm" height="52.9166mm" version="1.0" style="shape-rendering:geometricPrecision; text-rendering:geometricPrecision; image-rendering:optimizeQuality; fill-rule:evenodd; clip-rule:evenodd"
viewBox="0 0 9404.92 5283.66"
 xmlns:xlink="http://www.w3.org/1999/xlink"
 xmlns:xodm="http://www.corel.com/coreldraw/odm/2003">
 <defs>
  <style type="text/css">
   <![CDATA[
    .fil5 {fill:#231F20;fill-rule:nonzero}
    .fil3 {fill:#6D6E71;fill-rule:nonzero}
    .fil9 {fill:#BCBEC0;fill-rule:nonzero}
    .fil7 {fill:#D1D3D4;fill-rule:nonzero}
    .fil8 {fill:#E6E7E8;fill-rule:nonzero}
    .fil4 {fill:#F1F2F2;fill-rule:nonzero}
    .fil6 {fill:#FFCB31;fill-rule:nonzero}
    .fil10 {fill:white;fill-rule:nonzero}
    .fil2 {fill:#373435;fill-opacity:0.031373}
    .fil1 {fill:#2B2A29;fill-opacity:0.101961}
    .fil0 {fill:#FFE8A8}
   ]]>
  </style>
 </defs>
 <g id="Layer_x0020_1">
  <metadata id="CorelCorpID_0Corel-Layer"/>
  <polygon class="fil0" points="-0,0 9404.92,0 9404.92,5283.66 -0,5283.66 "/>
  <polygon class="fil1" points="1376.15,5283.66 1349.74,5283.66 1346.09,5283.66 1277.81,5283.66 1235.64,5283.66 1210.96,5283.66 1170.7,5283.66 1066.43,5283.66 1057.87,5283.66 1028.23,5283.66 974.47,5283.66 963.05,5283.66 935.44,5283.66 901.69,5283.66 845.76,5283.66 824.13,5283.66 819.34,5283.66 805.38,5283.66 767.96,5283.66 726.97,5283.66 720.84,5283.66 703.66,5283.66 693.65,5283.66 656.51,5283.66 653.8,5283.66 557.92,5283.66 501.4,5283.66 492.33,5283.66 477.02,5283.66 453.43,5283.66 451.46,5283.66 396.01,5283.66 351.96,5283.66 347.71,5283.66 332.21,5283.66 323.54,5283.66 295.37,5283.66 289.71,5283.66 271.88,5283.66 270.11,5283.66 243.67,5283.66 231.07,5283.66 227.53,5283.66 225,5283.66 171.43,5283.66 162.02,5283.66 155.54,5283.66 137.09,5283.66 109.6,5283.66 94.8,5283.66 52.71,5283.66 40.94,5283.66 30.54,5283.66 -0,5283.66 -0,5280.64 -0,5277.78 -0,5264.83 -0,5257.92 -0,5256.53 -0,5254.03 -0,5247.87 -0,5245.93 -0,5245.85 -0,5245.84 -0,5231.4 -0,5231.39 -0,5224.92 -0,5221.96 -0,5213.02 -0,5210.89 -0,5191.57 -0,5187.53 -0,5183.69 -0,5182.56 -0,5139.91 -0,5134.89 -0,5117.42 -0,5106.68 -0,5101.17 -0,5091.38 -0,5087 -0,5080.99 -0,5066.38 -0,5066.05 -0,5063.18 -0,5057.8 -0,5052.81 -0,5051.52 -0,5043.6 -0,5043.48 -0,5039.03 -0,5038.07 -0,5031.96 -0,5031.75 -0,5026.38 -0,5023.65 -0,5021.32 -0,5021 -0,5020.73 -0,5020.14 -0,5019.92 -0,5019.87 -0,5018.88 -0,5018.8 -0,5018.54 -0,5017.57 -0,5016.12 -0,5009.41 -0,5009.08 -0,5009.07 -0,5008.62 -0,5005.43 -0,4999.48 -0,4999.47 -0,4998.52 -0,4997.62 -0,4997.61 -0,4997.4 -0,4977.16 -0,4945.72 -0,4930.93 -0,4928.9 -0,4927.35 -0,4927.34 -0,4927.03 -0,4926.05 -0,4926.04 -0,4925.09 -0,4924.96 -0,4924.26 -0,4918.05 -0,4915.62 -0,4913.13 -0,4905.33 -0,4899.57 -0,4895.76 -0,4888.7 -0,4887.88 -0,4887.46 -0,4885.63 -0,4884.87 -0,4878.72 -0,4878.69 -0,4878.68 -0,4876.93 -0,4876.92 -0,4874.03 -0,4874.02 -0,4872.77 -0,4872.7 -0,4866.39 -0,4866.24 -0,4865.41 -0,4863.78 -0,4863.66 -0,4858.09 -0,4856.5 -0,4856.49 -0,4854.36 -0,4854 -0,4853.99 -0,4850.35 -0,4842.82 -0,4835.62 -0,4835.13 -0,4819.77 -0,4819.43 -0,4815.66 -0,4803.67 -0,4802.82 -0,4799.66 -0,4788.73 -0,4780.67 -0,4777.57 -0,4774.84 -0,4770.3 -0,4769.34 -0,4768.58 -0,4765.96 -0,4763.72 -0,4760.37 -0,4759.65 -0,4755.77 -0,4750.22 -0,4745.25 -0,4745.23 -0,4739.39 -0,4739.37 -0,4739.24 -0,4738.6 -0,4738.59 -0,4736.88 -0,4736.19 -0,4735.79 -0,4735.78 -0,4735.47 -0,4728.39 -0,4723.72 -0,4722.7 -0,4722.22 -0,4719.28 -0,4715.72 -0,4715.6 -0,4712.35 -0,4709.37 -0,4697.96 -0,4688.07 -0,4688.05 -0,4687.14 -0,4685 -0,4683.13 -0,4683.03 -0,4679.64 -0,4679.31 -0,4677.92 -0,4677.53 -0,4670.06 -0,4665.61 -0,4661.59 -0,4657.6 -0,4656.26 -0,4655.01 -0,4653.81 -0,4652.85 -0,4652.19 -0,4652.04 -0,4645.35 -0,4639.72 -0,4637.57 -0,4627.15 -0,4622.23 -0,4617.34 -0,4616.9 -0,4616.88 -0,4612.72 -0,4611.82 -0,4595.75 -0,4588.53 -0,4584.16 -0,4581.86 -0,4566.49 -0,4563.56 -0,4545.56 -0,4540.34 -0,4536.23 -0,4536.2 -0,4527.66 -0,4521.79 -0,4517.95 -0,4516.38 -0,4503.92 -0,4497.97 -0,4483.41 -0,4481.83 -0,4474.9 -0,4472.41 -0,4471.64 -0,4471.39 -0,4464.27 -0,4460.98 -0,4459.88 -0,4458.51 -0,4455.93 -0,4452.63 -0,4448.52 -0,4444.6 -0,4444.32 -0,4444.03 -0,4442.43 -0,4441.98 -0,4440.9 -0,4440.65 -0,4440.64 -0,4440.39 -0,4421.72 -0,4415.61 -0,4404.56 -0,4403.79 -0,4397.9 -0,4397.76 -0,4397.33 -0,4396.71 -0,4395.08 -0,4394.88 -0,4392.4 -0,4392.39 -0,4392.01 -0,4391.91 -0,4391.74 -0,4391.62 -0,4389.84 -0,4382.99 -0,4382.9 -0,4377.94 -0,4367.35 -0,4366.09 -0,4364.3 -0,4364.29 -0,4353.28 -0,4351.69 -0,4347 -0,4343.47 -0,4343 -0,4342.01 -0,4330.81 -0,4330.52 -0,4316.01 -0,4315.78 -0,4308.23 -0,4307.44 -0,4305.97 -0,4297.3 -0,4294.86 -0,4285.11 -0,4283.18 -0,4279.03 -0,4277.24 -0,4273.2 -0,4272.27 -0,4266.55 -0,4266.12 -0,4246.78 -0,4244.8 -0,4242.13 -0,4240.48 -0,4239.21 -0,4236.57 -0,4228.21 -0,4215.56 -0,4213.26 -0,4213.12 -0,4207.98 -0,4205.87 -0,4204.49 -0,4204.4 -0,4189.66 -0,4180.73 -0,4170.78 -0,4168.14 -0,4165.78 -0,4160.54 -0,4157.68 -0,4156.65 -0,4155.39 -0,4151.62 -0,4151.57 -0,4151.2 -0,4151.07 -0,4150.97 -0,4150.14 -0,4149.78 -0,4148.32 -0,4148.18 -0,4148.03 -0,4143.16 -0,4141.04 -0,4130.54 -0,4125.54 -0,4121.94 -0,4118.82 -0,4118.72 -0,4118.71 -0,4111.55 -0,4109.97 -0,4104.08 -0,4096.51 -0,4095.95 -0,4092.24 -0,4089.59 -0,4086.87 -0,4081.6 -0,4078.22 -0,4068.94 -0,4060.43 -0,4057.89 -0,4053.61 -0,4050.86 -0,4042.64 -0,4042.27 -0,4026.51 -0,4026.2 -0,4026.19 -0,4025.49 -0,4019.64 -0,4004.64 -0,4000.11 -0,3970.63 -0,3969.54 -0,3964.06 -0,3961 -0,3960.35 -0,3960.12 -0,3945.91 -0,3941.25 -0,3936.88 -0,3932.29 -0,3925.39 -0,3925.38 -0,3914.19 -0,3910.66 -0,3908.3 -0,3904.23 -0,3904.13 -0,3894.61 -0,3893.42 -0,3893.29 -0,3893.04 -0,3892.51 -0,3892.22 -0,3889.51 -0,3885.88 -0,3882.72 -0,3871.08 -0,3870.94 -0,3865.16 -0,3863.37 -0,3861.83 -0,3860.08 -0,3857.47 -0,3854.11 -0,3854.09 -0,3842.05 -0,3829.27 -0,3829.03 -0,3828.9 -0,3826.48 -0,3825.32 -0,3820.48 -0,3809.09 -0,3806.14 -0,3799.66 -0,3799.49 -0,3798.71 -0,3795.56 -0,3789.96 -0,3788 -0,3783.34 -0,3772.01 -0,3764.2 -0,3754.57 -0,3752.01 -0,3747.21 -0,3745.27 -0,3739.95 -0,3728.23 -0,3728.21 -0,3716.07 -0,3715.61 -0,3710.87 -0,3710.48 -0,3686.53 -0,3680.9 -0,3680.89 -0,3675.68 -0,3675.67 -0,3675.24 -0,3669.26 -0,3665.2 -0,3655.84 -0,3655.83 -0,3654.5 -0,3654.24 -0,3653.04 -0,3651.56 -0,3642.35 -0,3641.82 -0,3641.81 -0,3640.33 -0,3639.82 -0,3639.81 -0,3639.79 -0,3639.28 -0,3639.14 -0,3636.2 -0,3630.86 -0,3630.85 -0,3614.22 -0,3613.4 -0,3612.61 -0,3612.6 -0,3602.33 -0,3602.07 -0,3592.82 -0,3591.72 -0,3591.18 -0,3591.16 -0,3590.77 -0,3590.76 -0,3589.95 -0,3559.67 -0,3558.75 -0,3550.72 -0,3525.06 -0,3524.46 -0,3518.17 -0,3518.13 -0,3517.91 -0,3517.9 -0,3517.58 -0,3516.97 -0,3516.95 -0,3513.45 -0,3506.08 -0,3505.39 -0,3505.37 -0,3503.59 -0,3503.18 -0,3502.23 -0,3502.22 -0,3501.69 -0,3501.68 -0,3501.41 -0,3501.14 -0,3500.47 -0,3500.46 -0,3499.38 -0,3490.25 -0,3482.9 -0,3470.45 -0,3469.76 -0,3467.94 -0,3458.48 -0,3453.07 -0,3447.69 -0,3447.57 -0,3436.17 -0,3435.9 -0,3433.66 -0,3432.4 -0,3395.76 -0,3387.1 -0,3356.03 -0,3333.61 -0,3324.72 -0,3287.98 -0,3240.49 -0,3220.16 -0,3209.08 -0,3205.16 -0,3177.58 -0,3159.15 -0,3099.78 -0,3091.08 -0,3084.85 -0,3038.38 -0,3000.73 -0,2983.71 -0,2967.22 -0,2948.2 -0,2936.48 -0,2936.47 -0,2920.21 -0,2905.39 -0,2902.93 -0,2901.32 -0,2824.74 -0,2666.01 3502.25,827.1 3502.25,1000.67 3638.77,929.56 3809.36,929.56 3809.36,976.72 3900.47,929.56 4093.77,929.56 4093.77,988.03 4207.59,929.56 4355.48,929.56 4355.48,997.68 4110.18,1122.85 5652.84,1122.85 5938.44,982.33 5934.11,984.58 5931.01,986.4 5928.05,988.33 5925.23,990.4 5922.53,992.59 5919.99,994.87 5917.57,997.27 5915.29,999.77 5913.15,1002.34 5910.13,1006.23 5907.4,1010.23 5904.92,1014.33 5902.7,1018.53 5900.72,1022.79 5898.94,1027.11 5897.36,1031.46 5895.97,1035.82 5894.87,1040.21 5894.52,1041.84 5950.84,1014.18 5960.41,1010.37 5971.66,1009.03 6254.93,1009.03 6324.76,974.96 6324.76,1009.03 6337.02,1010.37 6349.03,1014.18 6360.37,1020.15 6370.62,1027.95 6379.33,1037.29 6386.09,1047.84 6390.47,1059.3 6392.01,1071.33 6392.01,1424.43 6390.47,1436.4 6386.09,1447.85 6379.33,1458.43 6370.62,1467.84 6360.37,1475.74 6349.03,1481.79 6266.84,1520.91 6266.84,1537.27 6300.9,1521.08 6324.76,1521.08 6329.76,1520.93 6334.69,1520.51 6339.54,1519.82 6344.31,1518.89 6348.98,1517.75 6353.54,1516.41 6357.99,1514.9 6362.32,1513.22 6368.75,1510.2 6266.84,1558.62 6266.84,1589.48 6426.07,1589.48 6429.44,1589.64 6432.75,1590.13 6436,1590.93 6439.14,1592.04 6442.16,1593.44 6445.03,1595.15 6447.73,1597.12 6450.23,1599.39 6452.51,1601.89 6454.53,1604.59 6456.27,1607.47 6457.72,1610.48 6458.88,1613.63 6459.73,1616.87 6460.24,1620.19 6460.42,1623.55 6460.42,2738.46 6517.18,2738.46 6520.55,2738.62 6523.86,2739.11 6527.11,2739.91 6530.24,2741.01 6533.27,2742.42 6536.13,2744.12 6538.84,2746.1 6541.35,2748.37 6543.61,2750.88 6545.59,2753.57 6547.29,2756.45 6548.7,2759.46 6549.79,2762.61 6550.59,2765.84 6551.08,2769.16 6551.24,2772.52 6551.24,3011.52 6551.08,3014.89 6550.59,3018.2 6549.79,3021.44 6548.7,3024.58 6547.29,3027.6 6545.59,3030.47 6543.61,3033.17 6541.35,3035.67 6538.84,3037.94 6536.13,3039.93 6533.27,3041.63 6530.24,3043.03 6460.42,3073.66 6460.42,3819.33 6460.24,3822.69 6459.73,3826.01 6458.88,3829.24 6457.72,3832.39 6456.27,3835.4 6454.53,3838.28 6452.51,3840.98 6450.23,3843.48 6447.73,3845.75 6445.03,3847.73 6442.16,3849.43 6439.14,3850.84 5946.39,4058.32 6653.71,4058.32 6983.83,4058.32 6983.83,4244.61 6982.52,4262.49 6978.69,4279.91 6972.53,4296.78 6964.22,4313.01 6953.9,4328.5 6941.76,4343.14 6927.98,4356.86 6912.72,4369.54 6896.16,4381.09 6878.47,4391.41 6859.82,4400.42 6721.12,4456.54 6758.22,4456.54 6770.21,4456.23 6782.14,4455.41 6794,4454.1 6805.79,4452.3 6817.45,4450.02 6828.99,4447.28 6840.39,4444.09 6851.63,4440.46 6862.68,4436.4 4764.57,5283.66 4712.5,5283.66 4677.12,5283.66 4591.08,5283.66 4588.02,5283.66 4503.61,5283.66 4431.09,5283.66 4398.73,5283.66 4049.38,5283.66 4004.09,5283.66 3696.1,5283.66 3036.2,5283.66 3030.31,5283.66 2986.88,5283.66 2955.25,5283.66 2881.02,5283.66 2874.4,5283.66 2742.42,5283.66 2735.91,5283.66 2693.33,5283.66 2681.97,5283.66 2661.97,5283.66 2630.61,5283.66 2588.27,5283.66 2530.31,5283.66 2144.59,5283.66 2084.67,5283.66 1970.05,5283.66 1813.59,5283.66 1795.16,5283.66 1653.18,5283.66 1522.64,5283.66 1436.69,5283.66 1421.03,5283.66 1416.02,5283.66 "/>
  <path class="fil2" d="M548.54 4627.69c17.95,27.21 29.6,53.36 40.96,82.43 8.45,16.91 12.93,48.09 52.57,48.09 11.61,0 28.28,-3.42 43.06,-11.61 16.63,-8.73 29.32,-21.94 35.94,-42l15.85 -53.36 38.57 -19.02 2.64 2.64c-5.27,20.09 -6.59,39.36 -6.59,54.43 0,44.63 38.57,61.56 69.22,61.56 17.95,0 34.09,-8.73 34.09,-25.11 0,-21.13 -8.98,-57.06 -20.62,-89.29 17.95,-17.95 35.94,-35.94 56.53,-50.47l3.17 1.6c8.98,38.04 14,75.56 14,100.66 0,24.57 -10.83,51.79 -19.81,69.49 -18.49,34.87 -51.25,62.62 -90.87,62.62 -30.1,0 -63.65,-15.07 -86.66,-43.06l-1.32 0c-21.66,26.96 -55.22,51.25 -108.86,51.25l-16.63 0c-2.64,35.41 -10.29,60.49 -21.94,82.95 -31.95,62.34 -126.81,106.47 -216.1,106.47 -124.17,0 -186.51,-71.59 -186.51,-166.96 0,-58.91 19.27,-113.6 48.88,-152.42l24.29 10.04c-18.49,35.41 -30.91,68.68 -30.91,101.45 0,89.29 72.66,131.83 156.4,131.83 77.68,0 173.83,-49.41 191.28,-106.72 -6.59,-62.62 -30.1,-91.93 -66.04,-148.99 10.83,-19.02 24.83,-38.04 42.28,-58.38l3.17 0 0 0 0 0 -0.02 -0.09zm1432.13 -336.04c26.15,16.39 51.79,35.66 76.87,57.85 -14,19.81 -31.45,37.79 -53.11,53.64 -25.11,-20.34 -50.19,-37.79 -75.84,-56.27 17.42,-19.55 34.62,-38.29 52.04,-55.22l0 0 0 0 0 0 0 0 0 0 0.03 0zm13.47 244.11c-42.28,0 -76.87,27.75 -76.87,48.34 0,44.13 84.53,57.85 185.72,57.31 -12.68,-51.79 -57.06,-105.68 -108.86,-105.68l0.01 0.03zm-94.86 236.19c54.96,0 103.04,-1.6 139.74,-10.83 40.96,-10.29 75.56,-30.91 75.56,-45.17 0,-3.7 0,-8.19 -1.32,-11.89 -22.98,2.11 -49.41,2.11 -72.38,2.11 -74.49,0 -131.55,-16.91 -154.02,-58.66 -5.55,-11.61 -9.51,-24.57 -9.51,-39.36 0,-40.43 17.42,-79.79 48.09,-107 25.61,-22.45 53.89,-36.44 82.67,-36.44 52.04,0 93.51,41.75 122.57,107.54 15.85,35.94 26.68,77.4 26.68,129.72 0,34.87 -9.51,64.19 -31.17,85.85 -40.43,39.11 -114.92,53.89 -229.04,53.89l-51.79 0 0 0 -13.47 0c-28.28,0 -48.62,-5.02 -64.72,-17.42l-2.64 0c0.79,6.59 1.32,12.93 1.32,19.02 0,25.61 -8.45,58.38 -25.61,84.53 -50.72,75.3 -105.68,108.04 -153.24,108.04 -48.09,0 -107,-18.49 -160.11,-42.54l9.51 -18.49c17.17,7.13 40.96,11.89 73.7,11.89 85.85,0 198.66,-82.43 212.66,-163 -3.17,-6.59 -8.98,-15.32 -17.17,-24.57 -25.11,-29.85 -40.96,-54.68 -55.75,-80.83 12.68,-25.11 24.29,-45.17 35.13,-63.4l4.49 -0.53c36.72,74.77 69.99,117.55 144.23,117.55l11.61 0 0 0 53.89 0 0 0 0 0 0 0 0 0 0 0 0.09 0.01zm-371.98 79c6.34,-34.34 6.87,-72.91 6.87,-108.86l0 -53.36c0,-99.6 -12.68,-244.36 -22.98,-338.68 17.95,-19.27 43.06,-42 62.87,-57.31l5.81 1.6c13.47,118.62 16.63,256 16.63,383.06 0,33.3 -1.32,65.79 -4.49,89.55 -1.85,30.1 -19.27,52.83 -56.53,87.7l-8.19 -3.7zm-382.8 -157.19c1.85,46.77 24.83,83.49 105.15,83.49 49.93,0 92.19,-12.93 138.96,-35.13 8.45,-3.7 12.93,-8.73 12.93,-12.93 0,-29.32 -22.45,-68.15 -60.23,-103.55 -36.72,-33.3 -85.34,-62.62 -130.76,-82.18 -15.6,-6.59 -20.62,-13.47 -20.62,-20.09 0,-13.47 17.95,-41.75 32.77,-62.09l5.02 -0.53c52.04,27.21 110.17,67.64 153.24,112.53 39.11,41.47 63.4,83.49 63.4,129.19 0,33.81 -10.29,65.51 -26.96,95.11 -57.06,28.79 -117.83,50.72 -178.06,50.72 -73.17,0 -123.1,-34.34 -123.1,-114.92 0,-8.73 0,-22.19 3.17,-39.64l25.11 0 0 0 0 0 0 0 0 0 0 0 -0.02 0zm-132.37 -132.9l45.45 73.45c16.63,27.21 32.23,56.81 32.23,103.55l0 59.7c0,48.34 -30.91,100.13 -80.83,151.38 -39.11,34.62 -73.7,49.41 -105.68,49.41 -47.55,0 -101.98,-14.79 -164.85,-41.75l7.13 -18.49c19.81,5.27 42.79,9.77 71.06,9.77 90.36,-0.53 182.8,-66.57 225.08,-147.15 5.02,-9.26 6.87,-17.95 6.87,-24.04 0,-9.26 -5.02,-19.55 -8.98,-28.79 -22.98,-43.31 -48.62,-82.95 -76.87,-119.68 14.79,-23.25 29.6,-45.7 45.7,-67.9l3.7 0.53 0 0 0 0 0 0 0 0 0 0 -0.02 0.01z"/>
  <g id="_1416173611728">
   <path class="fil3" d="M6653.71 1577.55c0,-96.64 -56.47,-147.59 -153.12,-147.59l-3404.43 0c-96.35,0 -163.02,50.94 -163.02,147.59l0 2480.76 3720.57 0 0 -2480.76z"/>
   <path class="fil4" d="M2603.33 4058.32l0 186.3c0,96.36 124.3,177.58 235.5,177.58l3919.39 0c111.2,0 225.61,-81.22 225.61,-177.58l0 -186.3 -4380.5 0z"/>
   <path class="fil5" d="M2603.33 4058.32l-34.06 0 0 186.3c0,31.73 10.18,61.13 26.49,86.76 24.16,38.43 61.71,69 104.21,90.53 42.51,21.83 90.82,34.35 138.86,34.65l3919.39 -0.01c64.04,-0.29 126.63,-22.71 175.24,-59.68 24.16,-18.62 45.12,-40.75 59.96,-66.37 15.15,-25.62 24.46,-55.03 24.46,-85.88l0 -186.3c0,-9.03 -3.78,-17.76 -10.18,-24.16 -6.12,-6.4 -15.15,-9.91 -23.87,-9.91l-4380.5 0.02c-9.02,0 -17.75,3.49 -24.16,9.9 -6.4,6.41 -9.9,15.14 -9.9,24.16l34.06 -0.01 0 34.06 4346.14 0 0 152.25c0,17.47 -4.94,34.35 -14.84,51.24 -14.56,25.03 -40.47,48.91 -72.2,65.49 -31.72,16.89 -68.7,26.78 -104.21,26.78l-3919.39 0c-23.87,0 -48.91,-4.36 -73.07,-12.22 -36.1,-12.22 -69.57,-32.6 -92.86,-56.47 -11.63,-11.93 -20.67,-24.45 -26.49,-37.26 -5.82,-12.52 -9.02,-25.03 -9.02,-37.55l0 -186.3 -34.07 -0.01 0 34.06 0 -34.06z"/>
   <polygon class="fil6" points="3172.15,3819.33 6426.07,3819.33 6426.07,1623.55 3172.15,1623.55 "/>
   <path class="fil5" d="M6426.07 3819.33l0 -34.07 -3219.58 0 0 -2127.66 3185.52 0 0 2161.73 34.06 0 0 -34.07 0 34.07 34.35 0 0 -2195.78c0,-9.03 -3.78,-17.76 -10.18,-24.16 -6.4,-6.4 -15.14,-9.91 -24.16,-9.91l-3253.92 0c-9.03,0 -17.76,3.5 -24.16,9.91 -6.12,6.4 -9.91,15.14 -9.91,24.16l0 2195.78c0,9.02 3.78,17.75 9.91,24.15 6.4,6.41 15.14,9.91 24.16,9.91l3253.92 0c9.03,0 17.76,-3.49 24.16,-9.91 6.4,-6.4 10.18,-15.14 10.18,-24.15l-34.35 0zm-1831.61 477.99l409.58 0 0 -68.41 -409.58 0 0 68.41z"/>
   <path class="fil7" d="M3377.08 3463.02l0 -188.92c22.71,-10.76 66.37,-25.02 98.97,-42.21l131.88 133.33c12.52,12.81 32.31,12.81 45.11,0l190.97 -191.25c12.52,-12.81 12.22,-33.18 -0.29,-45.7l-133.61 -119.64c17.17,-32.31 31.14,-65.21 42.21,-88.21l188.9 -0.01c17.76,0 16.02,-42.79 16.02,-60.55l0 -270.72c0,-17.75 1.75,-43.95 -16.02,-43.95l-188.91 -0.01c-11.06,-34.35 -25.03,-64.04 -42.51,-96.64l133.61 -130.41c12.52,-12.8 12.52,-31.73 0,-44.53l-191.54 -190.38c-12.52,-12.81 -32.9,-12.52 -45.71,0.28l-130.12 133.62c-32.6,-17.17 -76.26,-31.15 -98.97,-42.21l0 -188.92c0,-17.75 -21.25,-43.95 -39.01,-43.95l-270.71 -0.01c-17.75,0 -43.08,26.2 -43.08,43.95l0 188.92c-34.06,11.05 -64.62,25.32 -96.64,42.5l-130.99 -133.61c-12.8,-12.81 -32.01,-12.81 -44.53,0l-190.97 191.25c-12.52,12.81 -12.22,33.18 0.59,45.99l133.61 127.51c-17.17,32.6 -31.44,62.3 -42.21,96.64l-188.64 0.01c-18.04,0 -43.08,26.19 -43.08,43.95l0 270.72c0,17.75 25.03,60.55 43.08,60.55l188.63 0.01c10.77,23 25.33,55.89 42.51,88.21l-133.62 126.62c-12.8,12.52 -12.8,29.7 0,42.21l191.25 189.5c12.81,12.81 33.49,11.94 45.99,-0.87l128.38 -133.91c32.02,17.17 62.6,31.14 96.64,41.92l0 188.92c0,17.75 25.33,15.14 43.08,15.14l270.73 0.01c17.76,0 39.01,2.62 39.01,-15.14z"/>
   <path class="fil5" d="M3377.08 3463.02l34.06 0 0 -188.92 -34.06 0 14.55 30.86c4.66,-2.04 11.06,-4.95 18.63,-7.86 11.35,-4.65 25.03,-9.9 39,-15.72 14.26,-5.82 29.12,-12.22 42.79,-19.51l-16.01 -29.98 -24.45 23.88 131.87 133.61 0.31 -0.01c12.52,12.8 29.7,19.51 46.57,19.51 17.17,0 34.07,-6.71 46.87,-19.51l190.97 -191.25 -0.3 0c13.1,-12.81 19.51,-30.28 19.51,-46.87 0,-17.17 -6.7,-34.35 -19.8,-47.46l-1.17 -1.17 -133.61 -119.35 -22.71 25.33 29.97 16.01c18.05,-33.77 32.6,-67.83 43.08,-89.37l-30.85 -14.84 0 34.35 188.91 0.01c7.57,0 15.73,-2.34 22.13,-6.12 5.82,-3.2 9.91,-7.57 13.11,-11.63 5.53,-7.28 8.15,-13.69 9.9,-19.8 2.92,-9.02 3.78,-17.47 4.37,-25.32 0.58,-7.86 0.58,-15.43 0.58,-21.55l0 -281.2 0 -9.32c0,-4.37 0,-9.61 -0.29,-15.15 -0.58,-4.36 -1.16,-9.02 -2.33,-13.97 -1.75,-7.27 -4.95,-16.31 -13.11,-25.03 -4.06,-4.36 -9.6,-8.44 -15.72,-11.05 -6.12,-2.62 -12.81,-3.78 -18.63,-3.78l-188.92 0 0 34.35 32.6 -10.48c-11.94,-36.97 -27.08,-69 -44.84,-102.19l-30.27 16.02 23.87 24.45 133.61 -130.7 0.3 0c12.52,-12.52 19.51,-29.4 19.51,-46.29 0,-17.17 -6.99,-34.06 -19.51,-46.29l0 -0.28 -191.55 -190.38 0.3 0c-12.81,-12.81 -29.98,-19.51 -46.87,-19.51 -17.17,0 -34.65,6.99 -47.45,19.79l-0.29 0.29 -130.12 133.61 24.45 23.87 16.02 -29.97c-18.34,-9.91 -38.43,-18.04 -56.76,-25.33 -9.03,-3.49 -17.47,-6.7 -25.03,-9.9 -7.57,-2.92 -13.97,-5.54 -18.34,-7.86l-14.84 30.86 34.05 0.01 0 -188.92c0,-11.05 -2.92,-20.09 -6.7,-28.53 -5.53,-12.22 -13.39,-22.71 -23.87,-31.73 -4.95,-4.65 -10.77,-8.74 -17.75,-11.93 -6.99,-3.21 -15.15,-5.82 -24.75,-5.82l-270.71 0c-12.8,0 -22.71,4.06 -30.85,8.74 -12.52,6.98 -22.42,16.31 -30.57,27.07 -4.06,5.54 -7.85,11.64 -10.76,18.34 -2.63,6.7 -4.95,14.56 -4.95,23.87l0 188.92 34.06 -0.01 -10.48 -32.6c-36.67,11.93 -69.28,27.08 -102.46,45.12l16.31 29.97 24.16 -23.87 -130.99 -133.61c-12.22,-12.81 -29.4,-19.79 -46.57,-19.79 -16.89,0 -34.07,6.98 -46.29,19.79l0 -0.29 -190.97 191.55c-12.8,12.81 -19.2,29.98 -19.2,46.57 0,17.17 6.7,34.36 19.79,47.46l0.58 0.58 133.62 127.51 23.57 -24.74 -29.98 -16.01c-17.75,33.18 -32.89,65.21 -44.83,102.18l32.6 10.48 0 -34.35 -188.63 -0.02c-13.1,0.28 -22.71,4.36 -31.14,8.74 -12.52,7.27 -22.42,16.58 -30.56,27.66 -4.07,5.53 -7.57,11.35 -10.48,18.04 -2.93,6.99 -4.95,14.56 -5.24,23.87l0 270.72c0,6.12 1.17,11.06 2.34,16.01 2.03,8.16 5.23,16.02 9.02,23.58 5.82,11.64 12.81,22.71 22.13,32.89 4.65,4.95 9.61,9.61 16.31,13.98 3.49,2.04 7.27,4.07 11.64,5.53 4.65,1.75 9.91,2.92 16.01,2.92l188.63 -0.01 0 -34.35 -30.86 14.84c10.48,21.83 25.03,55.61 43.37,89.37l29.98 -16.01 -23.58 -24.74 -133.61 126.62 -0.59 0.59c-5.81,5.82 -10.76,12.8 -14.26,20.37 -3.49,7.86 -5.23,16.31 -5.23,24.74 0,8.74 1.75,17.18 5.23,24.75 3.5,7.85 8.45,14.84 14.26,20.67l191.55 189.8 -0.28 -0.29c12.8,12.81 29.97,19.21 46.28,19.21 17.76,0 34.94,-6.99 48.04,-20.09l0.29 -0.29 128.38 -134.19 -24.46 -23.58 -16.31 29.98c33.48,18.04 66.08,32.9 102.76,44.53l10.18 -32.6 -34.05 -0.01 0 188.92c0,4.65 0.58,9.61 2.04,14.84 2.92,8.74 8.74,16.89 15.43,21.84 4.65,4.06 9.61,6.4 13.97,8.15 6.7,2.34 12.52,3.21 17.75,3.78 5.24,0.58 9.91,0.58 14.26,0.58l297.52 0c4.06,0 8.74,0 13.97,-0.58 3.78,-0.58 8.16,-1.17 13.1,-2.92 3.5,-1.17 7.58,-2.92 11.64,-5.53 5.82,-3.78 12.22,-9.91 16.02,-17.47 3.78,-7.57 5.23,-15.73 5.23,-22.71l-68.4 0.02 16.58 0 -15.72 -4.37c-0.59,2.04 -0.87,3.5 -0.87,4.37l16.58 0 -15.72 -4.37 21.54 5.82 -15.14 -16.31c-3.21,2.63 -5.82,7.28 -6.4,10.48l21.54 5.82 -15.14 -16.31 13.39 14.56 -7.86 -18.34c-1.17,0.59 -3.49,1.76 -5.53,3.78l13.39 14.56 -7.86 -18.34 4.37 10.19 -2.63 -10.77 -1.75 0.58 4.37 10.19 -2.63 -10.77 0.59 1.75 -0.29 -1.75 -0.3 0.01 0.59 1.75 -0.29 -1.75c-0.29,0 -2.92,0.29 -6.4,0.29 -3.48,0 -7.86,-0.29 -13.11,-0.29l-270.72 0c-5.23,0 -9.9,0.29 -13.68,0.29 -3.21,0 -5.82,0 -7.28,-0.29l-1.17 -0.29 -0.29 -0.01 -0.87 3.21 1.16 -3.21 -0.29 0 -0.87 3.21 1.16 -3.21 -4.36 13.11 7.27 -11.64c-1.45,-0.87 -2.62,-1.17 -2.92,-1.46l-4.36 13.11 7.27 -11.64 -11.35 18.62 18.92 -10.76c-2.33,-3.78 -5.53,-6.7 -7.57,-7.86l-11.35 18.62 18.92 -10.76 -17.75 10.18 20.39 -0.01c0.28,-2.34 -0.59,-6.4 -2.63,-10.18l-17.75 10.18 20.38 0 0 -188.92c0,-14.84 -9.61,-27.94 -23.58,-32.6 -31.73,-9.9 -59.96,-22.71 -91.1,-39.3 -13.39,-7.27 -30.28,-4.65 -40.76,6.41l-128.38 133.91 24.74 23.57 -24.45 -23.87 0.58 0.59 0 -0.87 -0.58 0.28 0.58 0.59 0 -0.87 0 3.2 2.34 -2.04 -2.34 -1.16 0 3.2 2.34 -2.04 -0.29 -0.28 -191.55 -189.5 0.29 -0.03 -0.29 -0.28 -4.94 3.2 5.52 0c0.28,-1.75 -0.59,-3.2 -0.59,-3.2l-4.95 3.2 5.54 0 -6.99 0 6.4 2.92c0.29,-0.58 0.59,-1.75 0.59,-2.92l-6.99 0 6.4 2.92 -2.62 -1.16 2.34 1.75 0.28 -0.59 -2.62 -1.16 2.34 1.75 0.28 -0.29 -23.87 -24.16 23.29 24.75 133.91 -126.63c11.05,-10.48 13.69,-27.36 6.4,-40.75 -16.31,-30.86 -30.27,-63.16 -41.63,-86.76 -5.82,-11.93 -17.76,-19.51 -30.86,-19.51l-188.62 -0.01 0 18.34 8.16 -16.58c-0.87,-0.59 -3.78,-1.76 -8.16,-1.76l0 18.34 8.16 -16.58 -2.63 5.23 3.21 -4.95 -0.58 -0.28 -2.63 5.23 3.21 -4.95c0,0 -2.04,-1.75 -4.36,-4.65 -3.78,-4.36 -7.86,-11.05 -10.49,-16.59 -1.16,-2.92 -2.03,-5.53 -2.62,-6.98l-0.28 -1.75 -9.33 1.45 9.33 0 0 -1.45 -9.33 1.45 9.33 0 0 -270.72 -9.33 0 9.03 2.62c0,0 0.28,-0.87 0.28,-2.62l-9.31 0 9.03 2.62c0.28,-0.58 1.17,-2.33 2.62,-4.36 2.34,-2.92 5.53,-6.12 7.86,-7.57 1.17,-0.59 2.04,-1.17 2.04,-1.17l-3.21 -8.74 0 9.32c2.34,0 3.21,-0.58 3.21,-0.58l-3.21 -8.74 0 9.32 188.64 0c14.84,0 27.95,-9.61 32.6,-23.87 9.91,-31.44 23,-59.09 39.88,-90.53 7.28,-13.69 4.37,-30.28 -6.7,-40.76l-133.61 -127.79 -23.57 24.74 24.15 -24.16 -0.87 0.87 1.17 0.01 -0.29 -0.87 -0.87 0.87 1.16 0 -2.04 0 1.46 1.46 0.58 -1.46 -2.04 0 1.46 1.46 -0.29 0.01 190.97 -191.25 -2.04 -2.34 0 2.92 2.04 -0.58 -2.04 -2.34 0 2.92 0 -4.07 -1.46 3.78 1.46 0.29 0 -4.07 -1.46 3.78 0.87 -2.33 -1.45 2.04 0.58 0.28 0.87 -2.33 -1.45 2.04 0.58 -0.87 -0.58 0.87 0.58 -0.87 -0.58 0.87 0 -0.29 130.99 133.61c10.48,10.77 27.08,13.39 40.47,6.12 31.14,-16.59 59.67,-29.98 91.1,-40.17 14.26,-4.36 23.58,-17.47 23.58,-32.31l0 -188.92 -9.33 -0.01 9.03 2.92c0,-0.29 0.29,-1.17 0.29,-2.92l-9.32 0 9.03 2.92c0,-0.29 0.87,-2.04 2.34,-3.78 2.03,-3.21 5.53,-6.4 8.15,-8.16 1.17,-0.87 2.04,-1.16 2.04,-1.16l-1.45 -4.37 0.87 4.37 0.58 0 -1.45 -4.37 0.87 4.37 -2.63 -12.23 0 12.52c1.17,0 2.04,0 2.63,-0.28l-2.63 -12.22 0 12.52 270.72 -0.02 0 -11.93 -3.78 11.64c0.59,0 1.76,0.28 3.78,0.28l0 -11.93 -3.78 11.64 1.46 -4.66 -2.04 4.37 0.58 0.29 1.46 -4.66 -2.04 4.37 0.29 -0.29 -0.29 0.29 0.29 -0.29 -0.29 0.29c0,0 1.17,0.58 2.62,2.04 2.04,1.75 4.37,4.95 5.54,7.27 0.58,1.17 0.87,2.04 1.16,2.34l0 0.28 5.82 -1.45 -6.11 0.01 0.28 1.45 5.82 -1.45 -6.1 0 0 188.92c0,13.1 7.57,25.02 19.5,30.56 6.99,3.49 14.56,6.7 22.72,9.9 11.93,4.95 25.32,9.91 38.42,15.43 13.39,5.24 26.2,11.06 36.68,16.59 13.1,6.99 29.7,4.36 40.47,-6.4l130.12 -133.62 -1.17 -0.87 0 1.46 1.17 -0.59 -1.17 -0.87 0 1.46 0 -2.63 -1.75 1.76 1.75 0.87 0 -2.63 -1.75 1.76 0.29 0.28 191.25 190.38 1.45 -1.16 -1.75 0.58 0.29 0.58 1.45 -1.16 -1.75 0.58 3.78 -1.17 -4.07 0 0.29 1.17 3.78 -1.17 -4.07 0 4.08 0 -3.78 -1.75 -0.29 1.75 4.07 0 -3.78 -1.75 2.34 0.87 -2.04 -1.17 -0.29 0.29 2.34 0.87 -2.04 -1.17 24.16 24.16 -23.87 -24.46 -133.62 130.71c-10.77,10.48 -13.39,27.08 -6.11,40.47 16.88,31.44 29.97,59.09 39.88,90.53 4.65,14.26 17.75,23.87 32.6,23.87l188.9 0.01 0 -19.79 -6.7 18.62c2.62,0.87 4.95,1.17 6.7,1.17l0 -19.79 -6.7 18.62 7.28 -20.09 -17.76 11.94c1.46,2.62 5.53,6.4 10.48,8.15l7.28 -20.09 -17.76 11.94 9.91 -6.7 -11.64 3.78c0,0 0.58,1.17 1.75,2.92l9.91 -6.7 -11.64 3.78 0.59 -0.29 -0.59 0.01 0 0.29 0.59 -0.29 -0.59 0c0,0.29 0.59,2.04 0.59,4.37 0.28,2.33 0.28,5.53 0.28,8.74l0 290.51c0,4.65 0,9.61 -0.28,14.26 -0.29,3.5 -0.59,6.7 -0.88,9.03 -0.58,1.75 -0.87,3.2 -0.87,3.78l-0.28 0.28 7.57 2.92 -6.99 -4.06 -0.58 1.17 7.57 2.92 -6.99 -4.07 17.47 10.77 -11.05 -16.89c-3.78,2.34 -5.54,4.95 -6.41,6.12l17.47 10.77 -11.05 -16.89 13.39 20.09 0 -24.16c-4.37,0 -9.91,1.46 -13.39,4.07l13.39 20.09 0 -24.16 -188.96 -0.01c-13.11,0 -25.33,7.57 -30.86,19.51 -11.35,23.87 -25.03,55.9 -41.64,86.75 -7.27,13.98 -4.36,30.86 7.28,41.64l133.61 119.35 23 -25.32 -24.16 24.16 0.87 -1.17 -1.43 -0.01 0.58 1.16 0.87 -1.16 -1.45 0 2.34 0 -1.46 -1.46 -0.87 1.46 2.33 0 -1.46 -1.46 -0.3 0 -190.66 191.25 0 0.29 1.45 1.45 0 -2.03 -1.45 0.58 1.45 1.45 0 -2.03 0 2.03 1.75 -1.75 -1.75 -0.28 0 2.03 1.75 -1.75 0 0.29 -131.87 -133.61c-10.48,-10.77 -27.08,-13.11 -40.17,-6.12 -14.26,7.57 -32.31,15.14 -49.77,22.13 -8.74,3.2 -17.47,6.7 -25.32,9.9 -8.16,3.21 -15.73,6.41 -22.72,9.61 -11.93,5.82 -19.5,17.76 -19.5,30.86l0 188.92 34.35 0.01z"/>
   <path class="fil4" d="M3195.72 2976.29c-133.91,0 -242.77,-108.87 -242.77,-242.77 0,-134.2 108.87,-242.77 242.77,-242.77 134.2,0 242.78,108.58 242.78,242.77 0,133.91 -108.59,242.77 -242.78,242.77z"/>
   <polygon class="fil6" points="3502.25,1122.85 6107.6,1122.85 6107.6,827.1 3502.25,827.1 3502.25,1122.86 "/>
   <polygon class="fil4" points="3502.25,3819.33 6107.6,3819.33 6107.6,1122.85 3502.25,1122.85 "/>
   <path class="fil5" d="M6107.6 3819.33l0 -34.07 -2571.3 0 0 -2628.35 2537.25 0 0 2662.42 34.05 0 0 -34.07 0 34.07 34.06 0 0 -2696.48c0,-9.03 -3.49,-17.76 -9.9,-24.16 -6.41,-6.4 -15.15,-9.91 -24.16,-9.91l-2605.36 0.01c-9.03,0 -17.76,3.5 -24.16,9.91 -6.4,6.4 -10.18,15.14 -10.18,24.16l0 2696.48c0,9.02 3.78,17.75 10.18,24.16 6.4,6.4 15.14,9.9 24.16,9.9l2605.36 -0.01c9.02,0 17.75,-3.49 24.16,-9.91 6.4,-6.4 9.9,-15.14 9.9,-24.15l-34.06 0zm-2468.83 -2821.65l170.59 0 0 -68.12 -170.59 0 0 68.12zm261.7 0l193.3 0 0 -68.12 -193.3 0 0 68.12zm307.12 0l147.89 0 0 -68.12 -147.89 0 0 68.12z"/>
   <path class="fil8" d="M3684.19 3637.39l318.46 0 0 -2343.95 -318.46 0 0 2343.95zm557.45 0l1661.04 0 0 -2343.95 -1661.04 0 0 2343.95z"/>
   <path class="fil5" d="M4071.07 3626.04l68.11 0 0 -2332.6 -68.11 0 0 2332.6zm-295.76 -2139.02l125.17 0 0 -68.41 -125.17 0 0 68.41zm0 238.71l125.17 0 0 -68.12 -125.17 -0.01 0 68.12 0 0.01zm0 216.28l125.17 0 0 -68.12 -125.17 0 0 68.12zm0 238.99l125.17 0 0 -68.41 -125.17 0.01 0 68.41 0 -0.01zm0 216.01l125.17 0 0 -68.12 -125.17 -0.01 0 68.12 0 0.01zm0 227.64l125.17 0 0 -68.12 -125.17 0 0 68.12zm0 216.29l125.17 0 0 -68.42 -125.17 0 0 68.42zm0 238.99l125.17 0 0 -68.41 -125.17 0 0 68.41zm0 215.99l125.17 0 0 -68.11 -125.17 0 0 68.11zm0 227.65l125.17 0 0 -68.42 -125.17 0.01 0 68.42 0 -0.01z"/>
   <path class="fil9" d="M4344.11 1509.73l1445.03 0 0 -79.77 -1445.03 0 0 79.77zm0 181.93l489.34 0 0 -102.19 -489.34 0 0 102.19zm591.51 0l170.88 0 0 -102.19 -170.88 0 0 102.19zm273.06 0l159.24 0 0 -102.19 -159.24 0 0 102.19zm68.42 534.75l193.29 0 0 -79.47 -193.29 0 0 79.47zm307.11 0l204.94 0 0 -79.47 -204.94 0 0 79.47zm-1240.09 -352.53l1445.03 0 0 -102.46 -1445.03 0 0 102.46zm193.29 181.93l1251.74 0 0 -102.46 -1251.74 0 0 102.46zm-193.29 170.59l807.81 0 0 -79.47 -807.81 0 0 79.47zm0 967.05l1445.03 0 0 -90.83 -1445.03 0 0 90.83zm0 182.21l1023.81 0 0 -102.46 -1023.81 0 0 102.46zm580.16 181.94l864.87 0 0 -102.46 -864.87 0 0 102.46zm375.53 -546.1l489.34 0 0 -91.11 -489.34 0 0 91.11zm-261.71 0l147.89 0 0 -91.11 -147.89 0 0 91.11zm-693.98 546.1l477.99 0 0 -102.46 -477.99 0 0 102.46zm409.59 -546.1l170.57 0 0 -91.11 -170.57 0 0 91.11zm-79.77 -534.76l193.59 0 0 -102.46 -193.59 0 0 102.46zm-329.82 0l193.29 0 0 -102.46 -193.29 0 0 102.46zm0 352.83l1445.03 0 0 -91.11 -1445.03 -0.01 0 91.11 0 0.01zm0 -193.59l1240.09 0 0 -79.47 -1240.09 0 0 79.47zm625.86 -159.24l819.17 0 0 -102.46 -819.17 0 0 102.46zm523.41 898.92l295.76 0 0 -102.46 -295.76 0 0 102.46z"/>
   <path class="fil10" d="M6324.76 1009.03l-353.11 0c-32.31,0 -45.99,29.7 -45.99,62.3l0 353.11c0,32.31 13.69,62.59 45.99,62.59l33.48 0 0 1285.5 261.7 0 0 -1285.5 57.92 0c32.6,0 67.25,-30.27 67.25,-62.59l0 -353.11c0,-32.6 -34.65,-62.3 -67.25,-62.3z"/>
   <path class="fil5" d="M6324.76 1009.03l0 -34.07 -353.11 0.01c-13.1,0 -26.2,3.21 -37.55,9.61 -8.44,4.65 -15.43,10.77 -20.96,17.76 -8.44,10.18 -13.69,21.83 -17.17,33.48 -3.21,11.64 -4.36,23.57 -4.65,35.52l0 353.11c0.29,10.48 1.17,20.96 3.78,31.44 3.78,15.43 10.77,31.14 23.87,44.25 6.7,6.4 14.56,11.93 23.57,15.43 9.33,3.78 19.21,5.53 29.12,5.53l33.47 -0.02 0 -34.07 -34.06 0.01 0 1285.5c0,9.03 3.49,17.76 9.9,24.16 6.41,6.4 15.14,10.18 24.16,10.18l261.7 0c9.02,0 17.75,-3.78 24.15,-10.18 6.41,-6.4 9.91,-15.14 9.91,-24.16l0 -1251.45 23.86 0c13.39,0 26.2,-3.21 37.55,-7.86 17.47,-7.57 32.31,-18.92 43.95,-33.77 5.82,-7.57 10.77,-16.01 14.26,-25.03 3.49,-9.32 5.53,-19.5 5.53,-29.97l0.01 -353.12c0,-14.26 -3.49,-27.67 -9.61,-39.01 -8.74,-17.17 -22.13,-30.85 -37.84,-41.05 -15.73,-9.9 -33.77,-16.31 -53.86,-16.31l0 68.12c2.92,0 6.99,0.87 11.05,2.62 6.41,2.63 12.52,7.57 16.59,12.52 2.04,2.63 3.5,5.24 4.37,7.28 0.87,2.33 1.16,4.06 1.16,5.82l0 353.11c0,1.75 -0.58,4.65 -2.33,7.85 -2.34,4.95 -7.57,10.77 -13.69,14.85 -6.12,3.78 -12.81,5.82 -17.17,5.53l-57.91 0.02c-9.03,0 -17.76,3.78 -24.16,10.19 -6.4,6.4 -9.91,15.14 -9.91,24.15l0 1251.45 -193.29 0 0 -1251.45c0,-9.02 -3.78,-17.75 -10.18,-24.15 -6.41,-6.41 -15.14,-10.19 -24.16,-10.19l-33.48 0c-2.62,0 -3.21,-0.28 -3.78,-0.58l-1.75 -1.75c-1.46,-1.17 -2.92,-4.37 -4.37,-9.03 -1.17,-4.65 -2.04,-10.48 -2.04,-16.88l0.02 -353.11c0,-5.82 0.58,-11.06 1.75,-15.43 1.45,-6.7 3.78,-10.19 4.95,-11.06l1.45 -1.16c0.58,0 1.75,-0.59 3.78,-0.59l353.1 0 0 -34.06z"/>
   <polygon class="fil9" points="5925.67,3796.61 6392.01,3796.61 6392.01,3011.52 5925.67,3011.52 "/>
   <polygon class="fil7" points="5777.79,3011.52 6517.18,3011.52 6517.18,2772.52 5777.79,2772.52 "/>
   <path class="fil5" d="M6517.18 3011.52l0 -34.07 -705.33 0 0 -170.59 671.28 0.01 0 204.65 34.05 0 0 -34.07 0 34.07 34.06 0 0 -239c0,-9.02 -3.49,-17.75 -9.9,-24.15 -6.41,-6.41 -15.14,-9.91 -24.16,-9.91l-739.39 0c-9.03,0 -17.76,3.49 -24.16,9.91 -6.41,6.4 -10.19,15.14 -10.19,24.15l0 239c0,9.02 3.78,17.75 10.19,24.15 6.4,6.41 15.14,9.91 24.16,9.91l739.39 0c9.03,0 17.75,-3.49 24.16,-9.91 6.4,-6.4 9.9,-15.14 9.9,-24.15l-34.06 0zm-591.51 261.69l193.29 0 0 -68.41 -193.29 0 0 68.41zm0 216.29l193.29 0 0 -68.41 -193.29 0 0 68.41zm-869.52 -1730.6l-133.02 133.03c-6.12,6.12 -9.91,14.85 -9.91,23.58 0,8.74 3.78,17.46 9.91,23.57l133.02 133.03 47.16 -47.16 -109.44 -109.44 109.44 -109.45 -47.16 -47.16zm419.47 313.23l133.33 -133.03c6.12,-6.4 9.61,-14.56 9.61,-23.57 0,-9.03 -3.21,-17.17 -9.61,-23.58l-133.33 -133.03 -46.87 47.16 109.45 109.45 -109.45 109.44 46.87 47.16zm-272.17 26.2l162.43 -341.17 -60.26 -28.53 -162.14 341.16 59.97 28.54zm-599.67 710.29l-133.03 133.03c-6.4,6.4 -9.91,14.84 -9.91,23.57 0,8.74 3.5,17.47 9.91,23.57l133.03 133.33 47.16 -47.16 -109.75 -109.74 109.75 -109.45 -47.16 -47.15zm419.47 313.51l133.03 -133.33c6.4,-6.11 9.91,-14.55 9.91,-23.57 0,-8.74 -3.5,-17.17 -9.91,-23.57l-133.03 -133.03 -47.16 47.15 109.75 109.45 -109.75 109.74 47.16 47.16zm-272.18 25.91l162.14 -341.17 -60.26 -28.53 -162.14 341.17 60.26 28.53z"/>
  </g>
 </g>
</svg>
